<?xml version="1.0" encoding="UTF-8"?>
<svg version="1.1" xmlns="http://www.w3.org/2000/svg" width="612" height="744">
<path d="M0 0 C19.75785006 16.80207083 28.26884581 41.49835942 30.33203125 66.734375 C33.1293471 109.19619509 24.14130878 153.23016053 10.61328125 193.421875 C11.61171555 193.41299255 12.61014984 193.40411011 13.63883972 193.3949585 C23.09720638 193.31349609 32.55550087 193.25373015 42.01414013 193.21462631 C46.87570629 193.19384602 51.73698683 193.16570534 56.59838867 193.12011719 C61.29927142 193.07631553 65.99988129 193.05266622 70.70095253 193.04236603 C72.48492026 193.03503573 74.26887486 193.02072329 76.05272484 192.99895477 C90.01361703 192.83552915 103.60255253 193.72553855 114.61328125 203.421875 C123.22214812 212.49284804 126.64241045 222.00738036 126.9296875 234.34765625 C126.9504686 235.09524704 126.97124969 235.84283783 126.99266052 236.61308289 C127.05772314 238.98675896 127.11683835 241.36053987 127.17578125 243.734375 C127.21900771 245.34961995 127.26262329 246.96485453 127.30664062 248.58007812 C127.41335976 252.52723799 127.51474744 256.47450267 127.61328125 260.421875 C147.34397446 217.52217773 161.80655379 173.43361036 167.61328125 126.421875 C167.7831958 125.07899414 167.7831958 125.07899414 167.95654297 123.70898438 C169.21768213 113.29313042 169.65520796 102.93402409 169.7421875 92.44921875 C169.7647154 90.45564762 169.78725787 88.46207666 169.80981445 86.46850586 C169.85307969 82.48276122 169.85417629 78.49978073 169.83276367 74.51391602 C169.84688121 72.64989235 169.86221159 70.78587737 169.87890625 68.921875 C169.85571068 67.64188881 169.85571068 67.64188881 169.83204651 66.33604431 C169.92361949 60.74101571 171.21093305 57.81330156 175.03363037 53.71679688 C178.39052211 50.96497836 182.19505391 51.07846915 186.33203125 51.15234375 C190.03063015 51.58933574 191.90925756 52.90650413 194.61328125 55.421875 C198.08800782 61.02115821 200.09535314 67.29668918 202.05078125 73.546875 C202.5008252 74.98160156 202.5008252 74.98160156 202.95996094 76.4453125 C228.99425805 161.35546404 207.58106629 250.65450083 167.04296875 327.39453125 C152.78577676 353.76682481 136.16904359 378.88187877 117.61328125 402.421875 C116.74502256 403.54604848 115.87786697 404.67107465 115.01171875 405.796875 C105.67722714 417.88139019 95.64536478 429.33442882 85.27734375 440.5390625 C83.51086791 442.45058621 81.75547563 444.37241636 80.01171875 446.3046875 C70.74364088 456.55698603 61.19322604 466.77078524 50.62109375 475.6953125 C48.48360702 477.53338474 46.41652802 479.43984984 44.35107422 481.3581543 C38.30113391 486.97268945 32.0568952 492.26014712 25.61328125 497.421875 C24.5056619 498.33230201 23.39893325 499.24381343 22.29296875 500.15625 C12.12928009 508.48787544 1.48395129 516.04370149 -9.38671875 523.421875 C-10.09521973 523.9051123 -10.8037207 524.38834961 -11.53369141 524.88623047 C-30.35898262 537.64937014 -50.35003198 548.76079155 -71.38671875 557.421875 C-72.08023437 557.70998047 -72.77375 557.99808594 -73.48828125 558.29492188 C-102.70118109 570.27897828 -137.04658652 577.26011064 -167.38671875 565.421875 C-186.27144703 557.18372178 -198.92353515 542.28569645 -206.64794922 523.37011719 C-220.77281004 486.12081468 -214.14963631 442.19167246 -205.38671875 404.421875 C-206.10085937 404.18984375 -206.815 403.9578125 -207.55078125 403.71875 C-210.92649507 402.17503514 -213.06752041 400.21939778 -215.76171875 397.671875 C-218.77352573 394.84359215 -221.778385 392.06046567 -225.01171875 389.484375 C-245.00316286 372.44404883 -257.11543607 345.46972877 -263.26171875 320.484375 C-263.47723389 319.62054199 -263.69274902 318.75670898 -263.91479492 317.86669922 C-265.35940289 311.65123301 -266.78771272 304.88315422 -264.32421875 298.796875 C-263.00625653 295.45803738 -263.85373204 292.94994437 -264.38671875 289.421875 C-264.48199676 287.22235463 -264.53429703 285.02063308 -264.54785156 282.8190918 C-264.55745911 281.55054855 -264.56706665 280.28200531 -264.57696533 278.97502136 C-264.58181442 277.60704735 -264.58609297 276.23907121 -264.58984375 274.87109375 C-264.59408482 273.82377044 -264.59408482 273.82377044 -264.59841156 272.75528908 C-264.61334021 269.06089534 -264.62260984 265.36654002 -264.62695312 261.67211914 C-264.63243161 257.88303719 -264.65646443 254.09431566 -264.68492508 250.30534649 C-264.70366841 247.366857 -264.70876321 244.4284524 -264.710289 241.48990822 C-264.71328923 240.09423666 -264.72122727 238.69856564 -264.73447418 237.30295372 C-264.80629547 229.1557279 -264.35114286 222.06355305 -261.38671875 214.421875 C-313.83307591 288.04502586 -354.14119988 374.53124095 -353.359375 466.7578125 C-353.35353897 467.56665894 -353.34770294 468.37550537 -353.34169006 469.2088623 C-353.30796452 473.22122964 -353.24628497 477.23015734 -353.13793945 481.24121094 C-352.98456512 488.84237307 -352.87092078 494.95307682 -357.38671875 501.421875 C-360.81258837 504.21666337 -363.98987286 505.15268035 -368.38671875 505.421875 C-372.99988519 504.38626621 -375.99202744 502.69083701 -379.38671875 499.421875 C-380.85975368 496.76067925 -381.84041972 493.98225709 -382.82421875 491.109375 C-383.1178833 490.27688232 -383.41154785 489.44438965 -383.71411133 488.58666992 C-391.92715554 464.66825125 -397.45577082 439.05942735 -397.58984375 413.69921875 C-397.59685806 412.80423676 -397.60387238 411.90925476 -397.61109924 410.9871521 C-397.62851328 408.1111746 -397.63495275 405.23540331 -397.63671875 402.359375 C-397.63739349 401.37456146 -397.63806824 400.38974792 -397.63876343 399.37509155 C-397.62222474 384.17387 -397.05410277 369.42168133 -394.38671875 354.421875 C-394.2151123 353.42349609 -394.04350586 352.42511719 -393.86669922 351.39648438 C-387.55548531 315.41297704 -375.90164002 281.44013022 -360.38671875 248.421875 C-359.7529834 247.06956787 -359.7529834 247.06956787 -359.10644531 245.68994141 C-331.80668324 187.99967062 -291.3499089 137.37582705 -246.51171875 92.421875 C-245.62986404 91.53600204 -245.62986404 91.53600204 -244.73019409 90.63223267 C-238.4602878 84.34067697 -232.18316008 78.15044106 -225.38671875 72.421875 C-224.26829695 71.4493343 -223.15108056 70.47540539 -222.03515625 69.5 C-179.03550015 32.24965583 -127.46567151 -3.50962953 -70.38671875 -13.578125 C-69.36835938 -13.76117188 -68.35 -13.94421875 -67.30078125 -14.1328125 C-43.91028066 -16.79400718 -19.08453066 -15.15950326 0 0 Z M-92.38671875 72.421875 C-92.38671875 72.751875 -92.38671875 73.081875 -92.38671875 73.421875 C-91.73684998 73.42774124 -91.0869812 73.43360748 -90.41741943 73.43965149 C-83.60287415 73.50399646 -76.78878333 73.58851826 -69.97460938 73.68432617 C-67.43756127 73.71741109 -64.90044247 73.74549317 -62.36328125 73.76831055 C-58.69891461 73.80215985 -55.03518639 73.85449065 -51.37109375 73.91015625 C-50.25184509 73.91654617 -49.13259644 73.9229361 -47.97943115 73.92951965 C-38.30740297 74.1067527 -28.54355508 75.27641843 -20.38671875 80.859375 C-19.52046875 81.43558594 -18.65421875 82.01179688 -17.76171875 82.60546875 C-15.42681533 84.39120903 -13.40861649 86.29232992 -11.38671875 88.421875 C-13.9046731 78.88015326 -18.26088379 71.93280754 -26.76953125 66.67578125 C-47.27871549 56.84973925 -72.42525821 64.69413125 -92.38671875 72.421875 Z M-234.38671875 180.421875 C-240.63876468 187.23557045 -246.5924379 194.21669361 -252.38671875 201.421875 C-252.05671875 202.081875 -251.72671875 202.741875 -251.38671875 203.421875 C-250.33871094 202.78958984 -250.33871094 202.78958984 -249.26953125 202.14453125 C-248.35945312 201.59667969 -247.449375 201.04882812 -246.51171875 200.484375 C-245.60679687 199.93910156 -244.701875 199.39382812 -243.76953125 198.83203125 C-242.33470239 197.98289483 -240.87796427 197.16749776 -239.38671875 196.421875 C-238.53255298 193.96670741 -237.91603627 191.48100622 -237.265625 188.96484375 C-236.34842495 186.31107826 -235.17862215 184.56317461 -233.38671875 182.421875 C-233.71671875 181.761875 -234.04671875 181.101875 -234.38671875 180.421875 Z M-3.38671875 319.421875 C-3.59659375 348.54543309 -3.59659375 348.54543309 -3.7746582 377.66918945 C-3.82458496 383.33239746 -3.82458496 383.33239746 -3.85173035 385.99284363 C-3.86776342 387.83065478 -3.87813001 389.6685212 -3.88383484 391.50639343 C-3.9369375 406.62683509 -4.47881423 420.24141269 -14.9453125 432.203125 C-22.60845341 439.40684499 -32.50795473 442.50863527 -42.82250977 442.59887695 C-44.74589928 442.61812981 -44.74589928 442.61812981 -46.70814514 442.63777161 C-48.10230111 442.64594348 -49.49646152 442.65338635 -50.890625 442.66015625 C-51.95350392 442.66626954 -51.95350392 442.66626954 -53.03785515 442.67250633 C-56.79289324 442.69332428 -60.54789532 442.70764103 -64.30297852 442.71704102 C-68.15031897 442.72806086 -71.99707397 442.76242084 -75.84420872 442.80221272 C-78.82910616 442.82856904 -81.81386848 442.83674979 -84.79887199 442.84032249 C-86.2152391 442.84514425 -87.63160202 442.85662958 -89.04785347 442.87536049 C-98.96798447 442.99834531 -107.74906484 442.01453635 -116.59205627 437.22822571 C-117.18429489 436.96212997 -117.77653351 436.69603424 -118.38671875 436.421875 C-119.37671875 436.916875 -119.37671875 436.916875 -120.38671875 437.421875 C-128.06139114 438.22953521 -134.79186536 436.55184368 -142.07421875 434.296875 C-143.11989014 433.98427734 -144.16556152 433.67167969 -145.24291992 433.34960938 C-152.57812206 431.11054359 -159.64672855 428.49540738 -166.65625 425.390625 C-169.42533687 424.09294852 -169.42533687 424.09294852 -172.38671875 425.421875 C-175.04426229 443.47893426 -177.6837379 464.64582318 -166.88671875 480.64453125 C-161.50027324 487.31524502 -154.54559309 491.6110713 -146.07421875 493.140625 C-97.65718908 498.20752345 -48.6748076 464.97512118 -12.72265625 436.13671875 C-3.96422423 429.03742928 4.52765517 421.69068405 12.79296875 414.0234375 C15.30806993 411.70341342 17.85873038 409.43392972 20.42578125 407.171875 C29.39461211 399.11734243 38.18426012 390.57276265 45.9609375 381.3515625 C48.02886756 378.93653307 50.19935559 376.62621775 52.36328125 374.296875 C57.11082642 369.09035265 61.46354567 363.64795261 65.76953125 358.07421875 C67.65156508 355.64044226 69.56625647 353.24024431 71.51953125 350.86328125 C85.41891813 336.12989062 85.41891813 336.12989062 93.61328125 319.421875 C61.60328125 319.421875 29.59328125 319.421875 -3.38671875 319.421875 Z " fill="#FCFCFB" transform="translate(397.38671875,14.578125)"/>
<path d="M0 0 C2.55157046 -0.00202658 5.10314036 -0.00494284 7.65470886 -0.00869751 C12.95678219 -0.01308295 18.25874047 -0.00710165 23.56079102 0.00732422 C29.66814025 0.02375038 35.77519046 0.01826828 41.88253289 0.001845 C47.80872937 -0.01344403 53.73483363 -0.01178626 59.66104698 -0.0030098 C62.16362234 -0.00101527 64.66620541 -0.00344067 67.16877174 -0.01044846 C70.65674695 -0.01808473 74.1441476 -0.00643255 77.63208008 0.01025391 C79.16647736 0.00114487 79.16647736 0.00114487 80.73187256 -0.00814819 C87.59822285 0.05256704 93.58723585 0.72805208 99.09765625 5.23046875 C99.63648438 5.88402344 100.1753125 6.53757812 100.73046875 7.2109375 C101.28476562 7.85675781 101.8390625 8.50257813 102.41015625 9.16796875 C105.69106926 14.23121559 106.15632265 19.34408431 106.17431641 25.23974609 C106.18436203 26.00140076 106.19440765 26.76305542 106.20475769 27.54779053 C106.23547284 30.04747818 106.25259207 32.54705929 106.26953125 35.046875 C106.28825231 36.7870881 106.30782642 38.52729222 106.32821655 40.26748657 C106.37944471 44.83435761 106.41912017 49.40125805 106.45635986 53.96826172 C106.49645804 58.63386248 106.54752382 63.29934193 106.59765625 67.96484375 C106.69430516 77.10928966 106.77874513 86.25380422 106.85546875 95.3984375 C110.94550734 96.54826352 114.88723926 96.50938006 119.10546875 96.4609375 C119.85054688 96.45642578 120.595625 96.45191406 121.36328125 96.44726562 C123.19404515 96.43552996 125.02476748 96.417596 126.85546875 96.3984375 C126.86379573 89.08708745 126.83975961 81.77658336 126.77519035 74.46549129 C126.74620249 71.06998937 126.72807623 67.67517425 126.73535156 64.27954102 C126.74324135 60.36948572 126.70284803 56.46062404 126.66015625 52.55078125 C126.67379715 50.73476662 126.67379715 50.73476662 126.68771362 48.88206482 C126.58164128 41.45264156 126.58164128 41.45264156 122.88964844 35.23925781 C121.87907992 34.29143763 120.8678049 33.3443695 119.85546875 32.3984375 C116.93029533 26.75944712 116.76888616 20.19822333 118.5078125 14.1171875 C121.14833188 8.22418288 125.45918724 3.7827156 131.45733643 1.33795166 C135.42531569 0.24088646 139.12190701 0.11792606 143.20214844 0.13964844 C144.0195752 0.1361438 144.83700195 0.13263916 145.67919922 0.12902832 C148.37866774 0.12024062 151.07787257 0.12606066 153.77734375 0.1328125 C155.67946421 0.13146243 157.58158433 0.12951905 159.48370361 0.12701416 C163.481682 0.12406473 167.47957108 0.12834523 171.47753906 0.13769531 C176.52252802 0.14893673 181.56730261 0.14243148 186.61228371 0.13082504 C240.76633567 0.024604 240.76633567 0.024604 261.98046875 4.6484375 C263.51598389 4.97158936 263.51598389 4.97158936 265.08251953 5.30126953 C284.48014798 9.57418438 303.42457822 17.67499576 314.73046875 34.8984375 C315.79978916 36.71578018 316.84386811 38.54834434 317.85546875 40.3984375 C318.25507812 41.11515625 318.6546875 41.831875 319.06640625 42.5703125 C327.21324729 58.86399458 327.27523535 80.7500053 322.05078125 97.9453125 C319.03589959 106.65497064 314.70491899 113.329781 308.85546875 120.3984375 C308.13359375 121.3884375 307.41171875 122.3784375 306.66796875 123.3984375 C289.47144165 143.47954334 258.90381454 150.35262842 233.85546875 152.3984375 C213.85349098 153.71836497 193.87875467 153.63049157 173.85546875 152.9609375 C172.05589722 152.90220459 172.05589722 152.90220459 170.2199707 152.84228516 C168.52360474 152.77920166 168.52360474 152.77920166 166.79296875 152.71484375 C165.29056641 152.65985718 165.29056641 152.65985718 163.7578125 152.60375977 C160.85546875 152.3984375 160.85546875 152.3984375 157.74511719 151.83227539 C154.99319502 151.41911506 153.34213813 151.46916379 150.68359375 152.140625 C149.9359375 152.31980469 149.18828125 152.49898437 148.41796875 152.68359375 C147.65484375 152.87824219 146.89171875 153.07289063 146.10546875 153.2734375 C119.80085246 159.84959157 85.4469726 159.92563887 60.85546875 147.3984375 C58.09523909 145.64551243 55.48066442 143.83058541 52.90625 141.81640625 C50.76175934 140.33364414 49.45591546 139.58235907 46.85546875 139.3984375 C44.81006791 140.39493966 44.81006791 140.39493966 42.73046875 141.9609375 C22.07420626 155.02298584 -4.2945002 155.55567374 -27.9140625 155.56640625 C-29.60593187 155.5696306 -31.29780097 155.57299549 -32.9896698 155.57649231 C-36.51696416 155.58243905 -40.04423419 155.58433679 -43.5715332 155.58374023 C-48.04581302 155.58363875 -52.5199337 155.59729748 -56.99417591 155.61451244 C-60.48362415 155.62574057 -63.97303518 155.62765618 -67.46249962 155.62713051 C-69.10997758 155.62829416 -70.75745704 155.63262256 -72.40491676 155.64046288 C-98.44558023 155.75282618 -122.05587462 152.07209898 -141.4296875 133.265625 C-145.18957802 129.29474782 -148.28028812 125.0477899 -151.14453125 120.3984375 C-151.33015625 121.28982422 -151.33015625 121.28982422 -151.51953125 122.19921875 C-153.94727786 131.95572545 -159.01515476 139.66896034 -167.39453125 145.3359375 C-180.88653051 153.11477294 -195.86411646 154.64058532 -211.14453125 155.3984375 C-212.12808594 155.46417969 -213.11164063 155.52992188 -214.125 155.59765625 C-220.77633456 155.86971366 -226.42488716 154.97446717 -232.14453125 151.3984375 C-236.55269398 147.19106065 -239.18956938 142.44652931 -240.14453125 136.3984375 C-240.11977846 129.34389253 -238.51366126 124.07929514 -233.76953125 118.7109375 C-231.14453125 116.3984375 -231.14453125 116.3984375 -228.52168274 115.17106628 C-225.84093115 113.57798308 -225.84093115 113.57798308 -225.5052948 110.41816711 C-225.49863297 109.19905136 -225.49197113 107.97993561 -225.48510742 106.72387695 C-225.47462372 106.0504425 -225.46414001 105.37700806 -225.45333862 104.6831665 C-225.42455377 102.45888385 -225.43088308 100.23615452 -225.4375 98.01171875 C-225.42438683 96.46898952 -225.40908376 94.92627747 -225.39167786 93.3835907 C-225.35176938 89.32452367 -225.34163375 85.26590513 -225.33764648 81.20666504 C-225.3283259 77.06407006 -225.29091926 72.92173983 -225.25585938 68.77929688 C-225.1912242 60.65233898 -225.15803293 52.5256404 -225.14453125 44.3984375 C-225.91667969 44.10324219 -226.68882812 43.80804687 -227.484375 43.50390625 C-232.53607365 41.40459536 -235.79917594 38.32089172 -238.3515625 33.4453125 C-240.86896437 26.94719142 -240.60893096 20.79346679 -238.0859375 14.3671875 C-235.50301568 8.96555847 -231.73469158 5.54656519 -226.14453125 3.3984375 C-217.74360491 1.79773671 -208.96466203 2.23476786 -200.4453125 2.23046875 C-198.92286653 2.2272434 -197.40042084 2.22387844 -195.87797546 2.22038269 C-192.69167364 2.21442128 -189.50539879 2.21253932 -186.3190918 2.21313477 C-183.10093499 2.21321548 -179.88292217 2.20635715 -176.66479492 2.19262695 C-105.78034071 1.89467198 -105.78034071 1.89467198 -86.99609375 15.71484375 C-84.31874606 17.7317616 -84.31874606 17.7317616 -81.66015625 16.85546875 C-80.83 16.37464844 -79.99984375 15.89382813 -79.14453125 15.3984375 C-78.17 14.88667969 -77.19546875 14.37492188 -76.19140625 13.84765625 C-75.1034375 13.26628906 -74.01546875 12.68492187 -72.89453125 12.0859375 C-50.20303166 0.52162338 -24.950282 -0.07072498 0 0 Z M200.85546875 59.3984375 C200.78139685 63.77665659 200.726905 68.15454532 200.69067383 72.53320312 C200.67557275 74.02317659 200.65509017 75.51310551 200.62915039 77.00292969 C200.59282291 79.1426898 200.57575654 81.28186316 200.5625 83.421875 C200.54678955 84.71013184 200.5310791 85.99838867 200.51489258 87.32568359 C200.62728271 88.33969238 200.73967285 89.35370117 200.85546875 90.3984375 C205.85229993 93.72965829 211.61130497 92.72583385 217.48046875 92.7109375 C218.72699219 92.72705078 219.97351563 92.74316406 221.2578125 92.75976562 C230.60696607 92.76470182 238.85616783 92.17901027 245.85546875 85.3984375 C248.31977478 80.46982543 247.59759663 72.57259319 245.91796875 67.3984375 C242.55188923 62.50232183 237.81941819 60.98318023 232.12182617 59.85913086 C228.74623056 59.38303033 225.55228467 59.28514935 222.14453125 59.30078125 C220.90058594 59.30400391 219.65664063 59.30722656 218.375 59.31054688 C217.08980469 59.31892578 215.80460937 59.32730469 214.48046875 59.3359375 C213.17207031 59.34044922 211.86367188 59.34496094 210.515625 59.34960938 C207.29552594 59.36136156 204.07552105 59.37779207 200.85546875 59.3984375 Z M-85.14453125 88.3984375 C-86.13453125 88.8934375 -86.13453125 88.8934375 -87.14453125 89.3984375 C-86.86835592 91.33918611 -86.86835592 91.33918611 -86.14453125 93.3984375 C-82.98212543 95.50670805 -81.63795656 95.73661215 -77.95703125 96.0234375 C-77.05597656 96.09820313 -76.15492188 96.17296875 -75.2265625 96.25 C-74.53949219 96.29898438 -73.85242188 96.34796875 -73.14453125 96.3984375 C-76.9427089 93.17574132 -80.71844979 90.65323372 -85.14453125 88.3984375 Z " fill="#FDFCFC" transform="translate(263.14453125,587.6015625)"/>
<path d="M0 0 C3.20099589 3.99210391 4.44561542 7.77100843 5.875 12.625 C6.1318457 13.49237793 6.38869141 14.35975586 6.65332031 15.25341797 C9.90758912 26.66743477 12.05884266 38.30069707 14 50 C14.20133545 51.19326904 14.20133545 51.19326904 14.40673828 52.41064453 C19.08179206 81.44069017 15.70617789 111.51689147 10.50585938 140.203125 C10.19195459 141.9386912 9.88468599 143.67548873 9.58789062 145.4140625 C3.74869507 179.44145589 -10.63606123 212.3561358 -26 243 C-26.63373535 244.27133789 -26.63373535 244.27133789 -27.28027344 245.56835938 C-44.12513623 279.14949599 -65.99199949 310.18267977 -90 339 C-90.4753418 339.57443848 -90.95068359 340.14887695 -91.44042969 340.74072266 C-97.87725734 348.51311322 -104.58343004 355.99134525 -111.47509766 363.36181641 C-113.01708841 365.01835787 -114.54730451 366.68502748 -116.07421875 368.35546875 C-123.92081634 376.93428194 -131.83337372 385.40192845 -140.68359375 392.96484375 C-143.16821582 395.14779164 -145.57800703 397.39829967 -147.98828125 399.66259766 C-154.45032054 405.728543 -161.03382999 411.51203888 -168 417 C-168.62825684 417.50080078 -169.25651367 418.00160156 -169.90380859 418.51757812 C-193.22977922 437.0993765 -217.93697581 454.53421288 -245.08544922 467.11279297 C-246.40335762 467.72351461 -247.71729928 468.34284591 -249.02783203 468.96923828 C-261.95486494 475.14285033 -275.28656019 479.87992023 -289 484 C-289.69125977 484.21060059 -290.38251953 484.42120117 -291.09472656 484.63818359 C-299.83375851 487.18296343 -308.58469122 487.28673609 -317.625 487.375 C-318.74559814 487.38917969 -319.86619629 487.40335938 -321.02075195 487.41796875 C-338.11640562 487.31772303 -352.37823837 482.32896477 -364.79296875 470.35546875 C-382.91426521 451.01539483 -386.0775928 423.46683395 -385.453125 398.05859375 C-384.52050539 377.09823009 -381.35236771 355.84520188 -375.91796875 335.5859375 C-374.87600276 332.13254747 -374.87600276 332.13254747 -375 329 C-376.93055322 327.49307915 -378.81631414 326.18372378 -380.875 324.875 C-387.10299515 320.73598175 -392.5984409 316.18721151 -398 311 C-398.89460938 310.16855469 -399.78921875 309.33710938 -400.7109375 308.48046875 C-418.77926797 291.19661761 -433.41145216 265.20948819 -436 240 C-435.54638672 237.70947266 -435.54638672 237.70947266 -435 236 C-434.5875 236.38671875 -434.175 236.7734375 -433.75 237.171875 C-427.84218645 242.49945686 -421.08279426 247.08545049 -412.8808136 247.15821838 C-412.04368835 247.1680072 -411.20656311 247.17779602 -410.34407043 247.18788147 C-409.42913315 247.19363693 -408.51419586 247.1993924 -407.5715332 247.20532227 C-406.60549164 247.21522186 -405.63945007 247.22512146 -404.64413452 247.23532104 C-401.44637515 247.2669453 -398.24860092 247.29169722 -395.05078125 247.31640625 C-392.83546052 247.33697497 -390.62014372 247.35797142 -388.40483093 247.37937927 C-382.57037539 247.43460837 -376.73588437 247.484014 -370.90136719 247.53222656 C-364.94918659 247.58243543 -358.99705758 247.63812471 -353.04492188 247.69335938 C-341.36332531 247.80095122 -329.68168397 247.90239396 -318 248 C-317.99453156 249.71435745 -317.99453156 249.71435745 -317.98895264 251.46334839 C-317.95192641 262.26205228 -317.89407038 273.06047302 -317.81609726 283.85896111 C-317.77667736 289.40989192 -317.74446189 294.96066539 -317.72900391 300.51171875 C-317.71380131 305.87412144 -317.67929153 311.23609142 -317.63169098 316.59830093 C-317.61691435 318.63865512 -317.60896113 320.67907109 -317.60811615 322.71947861 C-317.68438079 339.94981123 -317.68438079 339.94981123 -310 355 C-316.8084375 353.77975603 -323.31949896 352.1398714 -329.875 349.9375 C-330.76759521 349.63948486 -331.66019043 349.34146973 -332.57983398 349.03442383 C-343.73627341 345.20144661 -354.46946086 340.30129781 -365 335 C-370.24593303 349.47877517 -371.17989356 363.62573035 -371.1875 378.9375 C-371.19974609 380.23107422 -371.21199219 381.52464844 -371.22460938 382.85742188 C-371.24121864 393.791857 -370.44969644 403.47524387 -365.3125 413.25 C-364.95583252 413.93819824 -364.59916504 414.62639648 -364.23168945 415.33544922 C-358.44135082 426.12366956 -349.91257284 431.78551823 -338.33984375 435.6484375 C-332.814472 437.23785044 -327.59700737 437.45887623 -321.875 437.375 C-320.86872559 437.36557373 -319.86245117 437.35614746 -318.82568359 437.34643555 C-310.26299103 437.17496309 -302.32172016 436.11250245 -294 434 C-293.34435059 433.83902832 -292.68870117 433.67805664 -292.01318359 433.51220703 C-256.97863546 424.75146607 -223.93701139 404.80021665 -195.91113281 382.51416016 C-194.07515067 381.05954068 -192.22478961 379.62607988 -190.3671875 378.19921875 C-173.04647662 364.85119208 -156.99071937 350.03998777 -141.5 334.625 C-140.85361572 333.98328857 -140.20723145 333.34157715 -139.54125977 332.68041992 C-135.7313914 328.85772205 -132.11682086 324.91532108 -128.58984375 320.83056641 C-126.53126573 318.46029337 -124.3908916 316.17092169 -122.25 313.875 C-116.97027557 308.08407684 -112.16546541 301.9836102 -107.38232422 295.78076172 C-106.04054834 294.05223589 -104.68243138 292.33830927 -103.31640625 290.62890625 C-67.08413682 245.23634883 -39.99091501 193.77651675 -21 139 C-20.51660156 137.6078125 -20.51660156 137.6078125 -20.0234375 136.1875 C-16.04677607 124.57994772 -13.15909836 112.8188905 -10.61328125 100.82275391 C-10.01616229 98.07439031 -9.37340316 95.3406295 -8.71875 92.60546875 C-1.65329512 62.27093705 -0.32531323 31.03376061 0 0 Z " fill="#F58635" transform="translate(582,84)"/>
<path d="M0 0 C0.89923187 -0.00067474 1.79846375 -0.00134949 2.72494507 -0.00204468 C56.99031392 0.06215339 108.68637912 14.63960767 160.52160645 29.20225525 C174.31255443 33.07391655 188.09810538 36.75803455 202.125 39.6875 C203.24769287 39.92259277 204.37038574 40.15768555 205.52709961 40.39990234 C219.95139378 43.28840124 234.06173872 44.65590862 248.75 44.625 C249.50720337 44.62611786 250.26440674 44.62723572 251.04455566 44.62838745 C262.88921932 44.61981701 274.05066818 43.58441818 285.58007812 40.70751953 C288.55443479 40.02107318 291.53507422 39.63043049 294.5625 39.25 C294.67978126 42.91639248 294.75010891 46.5822952 294.8125 50.25 C294.84601563 51.27996094 294.87953125 52.30992187 294.9140625 53.37109375 C295.01362408 61.18667756 293.79808605 66.48070903 288.66796875 72.45703125 C288.03503906 72.98683594 287.40210938 73.51664062 286.75 74.0625 C285.81220703 74.87654297 285.81220703 74.87654297 284.85546875 75.70703125 C278.10781144 80.24761837 272.53608395 80.67532489 264.57836914 80.59057617 C263.49470062 80.59101425 262.4110321 80.59145233 261.29452515 80.59190369 C257.72871604 80.5898212 254.16338277 80.5665149 250.59765625 80.54296875 C248.11901608 80.5373709 245.64037258 80.53310169 243.16172791 80.53010559 C236.64987972 80.51867183 230.13823346 80.48921696 223.62646484 80.45599365 C216.97692678 80.42363204 210.32732978 80.41159346 203.67773438 80.39648438 C190.63923696 80.36434613 177.60087924 80.31374701 164.5625 80.25 C164.57360306 81.54324188 164.58470612 82.83648376 164.59614563 84.16891479 C164.69767869 96.38012232 164.77254101 108.59124375 164.82156086 120.80277824 C164.8476101 127.0802869 164.88292373 133.35745369 164.93969727 139.63476562 C164.99418224 145.69725003 165.02395567 151.75940642 165.03688622 157.82211685 C165.04609641 160.13050624 165.06408176 162.43887848 165.09115028 164.74712753 C165.12765853 167.99049873 165.13243609 171.2325293 165.13012695 174.47607422 C165.15709152 175.8948864 165.15709152 175.8948864 165.18460083 177.34236145 C165.12648734 184.92840711 162.97771922 191.4499789 157.83620167 197.17080498 C149.91893555 204.74114005 140.73819856 204.70695188 130.3515625 204.68359375 C128.97447454 204.68816488 127.59738885 204.6934732 126.2203064 204.69947815 C123.34404188 204.70837428 120.46805552 204.70602722 117.59179688 204.69604492 C113.93145211 204.68457049 110.27207433 204.7047598 106.61185646 204.73396206 C103.77025393 204.75243547 100.92887829 204.75200951 98.08723068 204.74632454 C96.08999252 204.74609949 94.09277533 204.76289533 92.09561157 204.78013611 C81.5895511 204.70031558 73.554825 202.95474257 66.03515625 195.32421875 C61.50486658 188.94335982 61.13700957 183.33003104 61.22192383 175.72485352 C61.22148575 174.68995285 61.22104767 173.65505219 61.22059631 172.58879089 C61.2226779 169.18530073 61.24597977 165.78230983 61.26953125 162.37890625 C61.27512943 160.01236744 61.27939848 157.64582515 61.28239441 155.27928162 C61.29382562 149.06334768 61.32327824 142.84762544 61.35650635 136.6317749 C61.38724424 130.2838426 61.40090771 123.93587596 61.41601562 117.58789062 C61.44814937 105.14183429 61.49932509 92.69593478 61.5625 80.25 C60.99265633 80.25368717 60.42281265 80.25737434 59.83570099 80.26117325 C45.94653719 80.34965251 32.05742302 80.41551611 18.16803741 80.45724869 C11.45111445 80.47784171 4.73438004 80.50589934 -1.98242188 80.55175781 C-8.46633401 80.59526664 -14.95005043 80.61914814 -21.43409729 80.62950897 C-23.90600159 80.63689119 -26.37789536 80.65130692 -28.84971619 80.67292023 C-32.31606062 80.70202001 -35.78159965 80.70595309 -39.24804688 80.70410156 C-40.26656738 80.71848267 -41.28508789 80.73286377 -42.33447266 80.74768066 C-50.88427734 80.69836946 -57.17318635 78.16629623 -63.4375 72.25 C-67.44802919 66.90262774 -68.56611897 63.32786877 -68.55102539 56.74707031 C-68.55094986 55.64623108 -68.55087433 54.54539185 -68.55079651 53.41119385 C-68.54563522 52.22878113 -68.54047394 51.04636841 -68.53515625 49.828125 C-68.5337413 48.61300232 -68.53232635 47.39787964 -68.53086853 46.14593506 C-68.52526988 42.26393169 -68.5127176 38.38198594 -68.5 34.5 C-68.49498483 31.86849042 -68.49042195 29.23697993 -68.48632812 26.60546875 C-68.47530089 20.15362617 -68.45856408 13.7018172 -68.4375 7.25 C-65.10469636 6.60530289 -61.77116577 5.96444169 -58.4375 5.32421875 C-57.50292969 5.14338745 -56.56835938 4.96255615 -55.60546875 4.77624512 C-37.12810069 1.23501876 -18.78187291 0.01276133 0 0 Z " fill="#699F48" transform="translate(215.4375,239.75)"/>
<path d="M0 0 C1.65542061 -0.00021904 1.65542061 -0.00021904 3.34428406 -0.0004425 C6.95854725 0.00024902 10.57275763 0.00800555 14.18701172 0.01586914 C16.70620699 0.01773602 19.22540262 0.01915865 21.74459839 0.02015686 C27.67644829 0.02357285 33.60828151 0.0314383 39.54012287 0.04150635 C46.29959477 0.05272734 53.05906762 0.05819295 59.81854653 0.06320179 C73.70960772 0.07362274 87.60065244 0.09118467 101.49169922 0.11352539 C101.49312424 1.16730881 101.49454926 2.22109222 101.49601746 3.30680847 C101.51268861 13.23885986 101.55546579 23.1705016 101.62378979 33.10233593 C101.65807735 38.2084204 101.68317253 43.31420511 101.68725586 48.42041016 C101.691535 53.34845878 101.71996586 58.275831 101.765131 63.20366859 C101.77811829 65.08347954 101.78240932 66.96337138 101.77785301 68.84322166 C101.77295569 71.47727827 101.79899911 74.10935132 101.83227539 76.74316406 C101.82364975 77.52000046 101.81502411 78.29683685 101.80613708 79.09721375 C101.89146528 83.1275375 102.31573244 84.89928569 104.90840149 88.05586243 C107.04508545 89.75778606 108.91264918 91.13509705 111.36669922 92.30102539 C111.98287109 92.60395508 112.59904297 92.90688477 113.23388672 93.21899414 C119.25676106 95.60521944 124.70643542 96.50094571 131.11669922 96.48852539 C131.89996582 96.48836426 132.68323242 96.48820313 133.49023438 96.48803711 C141.91017718 96.32476 150.15394114 94.4161199 157.49169922 90.11352539 C158.70467571 87.83285469 158.70467571 87.83285469 159.49169922 85.11352539 C159.83342667 84.21142334 160.17515411 83.30932129 160.52723694 82.37988281 C161.58295585 78.80446533 161.76540439 75.82610958 161.7980957 72.10180664 C161.80641922 71.4278183 161.81474274 70.75382996 161.82331848 70.05941772 C161.84726594 67.84822697 161.85616981 65.63733174 161.86279297 63.42602539 C161.87176806 61.87955645 161.88089006 60.33308835 161.89015198 58.78662109 C161.90660097 55.5521433 161.9143351 52.31776856 161.91723633 49.08325195 C161.92262857 44.94709895 161.96035949 40.81191863 162.00598049 36.67604065 C162.03577363 33.48462408 162.04296029 30.29344172 162.04396248 27.10189819 C162.04815718 25.57729619 162.0605615 24.05269302 162.08148003 22.52822876 C162.10845629 20.39317723 162.10355465 18.26038124 162.09106445 16.12524414 C162.0961351 14.91312256 162.10120575 13.70100098 162.10643005 12.45214844 C161.28299608 7.9800519 159.66257903 6.32941312 156.49169922 3.11352539 C155.83169922 2.78352539 155.17169922 2.45352539 154.49169922 2.11352539 C154.49169922 1.45352539 154.49169922 0.79352539 154.49169922 0.11352539 C165.45511615 0.06675612 176.41850854 0.03143336 187.38200569 0.00990105 C192.4752472 -0.00044416 197.56841943 -0.01442931 202.66162109 -0.03735352 C207.59594253 -0.05941833 212.53019823 -0.07111241 217.46456528 -0.0762291 C219.32758491 -0.07986558 221.19060181 -0.08696191 223.05359268 -0.09793472 C251.48307099 -0.2584015 287.79553533 -0.10993056 309.44482422 21.01977539 C318.38711589 30.48808422 319.69979941 40.1966283 319.80419922 52.73852539 C319.83320312 53.87676758 319.86220703 55.01500977 319.89208984 56.18774414 C319.99045326 69.36844199 315.10234557 78.76972048 306.37841797 88.46118164 C286.31393311 108.12100462 256.5311954 110.32160015 229.99951172 110.21118164 C228.68755829 110.20976669 227.37560486 110.20835175 226.02389526 110.20689392 C222.58813459 110.20313218 219.15241831 110.19335867 215.7166748 110.18218994 C212.18986613 110.17183687 208.66305006 110.16736699 205.13623047 110.16235352 C198.25470218 110.15172856 191.37320285 110.13473165 184.49169922 110.11352539 C187.36516506 106.6163845 190.00311638 103.50700793 193.55419922 100.67602539 C198.1770528 96.7335163 201.50337323 92.29056279 202.49169922 86.11352539 C205.69430282 87.12898507 208.69083129 88.20893438 211.7253418 89.6628418 C215.57558278 91.32127248 218.98507827 91.50111044 223.19091797 91.51196289 C223.90721878 91.51483307 224.62351959 91.51770325 225.36152649 91.5206604 C226.87001338 91.5226901 228.37852725 91.51723723 229.88696289 91.50463867 C232.15622249 91.48868691 234.42366894 91.50446156 236.69287109 91.52368164 C249.95463234 91.54273642 261.5723138 89.54839774 272.67919922 81.92602539 C278.98181409 75.62341052 282.6907382 67.35194488 282.82128906 58.40478516 C282.81564941 57.73116943 282.81000977 57.05755371 282.80419922 56.36352539 C282.79855957 55.65832764 282.79291992 54.95312988 282.78710938 54.2265625 C282.54228731 43.63982633 279.28698414 34.93474 271.74560547 27.35961914 C261.4914841 18.85360162 248.27246552 17.98957431 235.53076172 17.79711914 C234.38505707 17.77633804 233.23935242 17.75555695 232.05892944 17.73414612 C228.41157835 17.66894321 224.76415738 17.60990187 221.11669922 17.55102539 C218.63882751 17.50781234 216.16096278 17.46419717 213.68310547 17.42016602 C207.61937652 17.31329187 201.55557859 17.2114719 195.49169922 17.11352539 C195.50280228 17.93070038 195.51390533 18.74787537 195.52534485 19.58981323 C195.62593206 27.32733723 195.70185798 35.06453992 195.75076008 42.80254936 C195.7767474 46.7798664 195.81194288 50.75663887 195.86889648 54.73364258 C195.92360942 58.57866823 195.95320127 62.42317332 195.96608543 66.2685585 C195.97525558 67.72848825 195.99316149 69.18839262 196.0203495 70.64809799 C196.2027736 80.85731738 195.02159545 88.51419109 188.45654297 96.62915039 C170.70916908 111.81187487 148.20275055 114.55334362 125.67919922 114.48852539 C124.55925568 114.48721115 124.55925568 114.48721115 123.41668701 114.48587036 C106.35416404 114.41983928 90.9252197 112.89859005 77.37841797 101.30493164 C69.80817149 93.50773988 66.35566063 82.73185285 66.37817383 72.03808594 C66.37824936 70.83721848 66.37832489 69.63635101 66.37840271 68.39909363 C66.383564 67.1124733 66.38872528 65.82585297 66.39404297 64.50024414 C66.39590966 63.16217604 66.39733238 61.82410724 66.39833069 60.48603821 C66.40213608 56.97616669 66.41194934 53.466337 66.42303467 49.95648193 C66.43329145 46.37016363 66.43783743 42.78383853 66.44287109 39.19750977 C66.45357349 32.16949786 66.47062601 25.14151364 66.49169922 18.11352539 C56.80680534 18.1517674 47.12233684 18.21139478 37.43774891 18.29742813 C32.93952405 18.33673547 28.44149006 18.36900524 23.94311523 18.38452148 C19.59213515 18.39979944 15.24168039 18.43443868 10.8909359 18.48183441 C9.24103073 18.49653444 7.59105052 18.50455978 5.94108009 18.50540924 C-5.03314119 18.51672875 -16.04342482 18.80360808 -25.50830078 25.11352539 C-26.09992472 27.40101832 -26.09992472 27.40101832 -26.07080078 29.98852539 C-26.11333984 30.85219727 -26.15587891 31.71586914 -26.19970703 32.60571289 C-25.68778294 35.35255169 -25.68778294 35.35255169 -23.05517578 37.28540039 C-18.81449335 39.47112658 -14.8373055 40.49991902 -10.19580078 41.48852539 C-8.3168818 41.91685494 -6.43797612 42.34524288 -4.55908203 42.77368164 C-1.50500539 43.45341971 1.55040695 44.12632314 4.60742188 44.79272461 C46.96523012 54.08534178 46.96523012 54.08534178 58.05419922 69.67602539 C61.72889374 76.37031568 61.87741054 84.00541308 59.89404297 91.31665039 C56.08043715 99.19218985 46.97844206 104.04120271 39.15933228 106.99269104 C17.10895446 114.51922407 -6.41958417 113.74732075 -29.40405273 113.63500977 C-34.14727295 113.61207439 -38.88959442 113.6254914 -43.63278294 113.64929962 C-47.34873528 113.6638725 -51.0644802 113.65910204 -54.78043938 113.64878845 C-56.52839204 113.64616052 -58.27636485 113.6492485 -60.0242939 113.65870667 C-77.68136298 113.73344598 -95.83551332 111.39726259 -109.44580078 98.98852539 C-114.87590039 93.26799906 -118.94524482 86.60750499 -123.04321289 79.89428711 C-123.56536377 79.04882324 -124.08751465 78.20335937 -124.62548828 77.33227539 C-125.08552246 76.56850586 -125.54555664 75.80473633 -126.01953125 75.01782227 C-127.69863841 72.87006303 -128.97553192 72.0710922 -131.50830078 71.11352539 C-134.38560137 70.76016724 -134.38560137 70.76016724 -137.44580078 70.80102539 C-138.97527344 70.77588867 -138.97527344 70.77588867 -140.53564453 70.75024414 C-143.87700183 71.15858347 -145.7717073 72.2034537 -148.50830078 74.11352539 C-149.69696655 60.06415639 -149.69696655 60.06415639 -147.28955078 56.11352539 C-145.0773359 54.63871547 -143.05539999 53.9008106 -140.50830078 53.11352539 C-139.30818359 52.71520508 -138.10806641 52.31688477 -136.87158203 51.90649414 C-134.13807213 51.02280337 -131.39494075 50.18155432 -128.64111328 49.36352539 C-124.78582588 48.21000321 -120.98521497 46.96991526 -117.19580078 45.61352539 C-116.16841797 45.25258789 -115.14103516 44.89165039 -114.08251953 44.51977539 C-110.9393107 42.80269621 -109.95639944 41.36209338 -108.50830078 38.11352539 C-107.72736909 33.94152094 -107.71050816 30.32617018 -110.07080078 26.73852539 C-120.47499579 19.80239538 -132.8893189 20.01019658 -144.98095703 19.55883789 C-146.09152466 19.51509033 -147.20209229 19.47134277 -148.34631348 19.42626953 C-151.06688724 19.31946561 -153.78753449 19.21528582 -156.50830078 19.11352539 C-156.49941833 20.08991974 -156.49053589 21.06631409 -156.48138428 22.07229614 C-156.40022878 31.28266784 -156.34030199 40.4929668 -156.30105209 49.70361519 C-156.28019473 54.43871104 -156.25191099 59.17351779 -156.20654297 63.90844727 C-156.16301905 68.47962147 -156.13914974 73.05051794 -156.12879181 77.62188339 C-156.12141217 79.36418911 -156.10700131 81.10647996 -156.08538055 82.84866714 C-156.05625888 85.29291649 -156.05234833 87.73602446 -156.05419922 90.18041992 C-156.03262756 91.25612495 -156.03262756 91.25612495 -156.01062012 92.3535614 C-156.05187616 97.40278028 -157.35762349 100.21752126 -160.50830078 104.11352539 C-171.58710589 113.34586298 -186.95991259 112.26150536 -200.50830078 112.11352539 C-198.98895373 109.07483128 -196.52825306 108.46942233 -193.50830078 107.11352539 C-192.84830078 107.11352539 -192.18830078 107.11352539 -191.50830078 107.11352539 C-190.1987879 103.18498674 -190.31103342 99.41318865 -190.26782227 95.31518555 C-190.24832771 93.96595253 -190.24832771 93.96595253 -190.22843933 92.58946228 C-190.10194181 83.20281679 -190.04503159 73.81528423 -189.9934082 64.42797852 C-189.96661691 59.97142247 -189.91781916 55.51592925 -189.84985352 51.05981445 C-189.76802622 45.68107477 -189.72524446 40.30335097 -189.71034431 34.92402267 C-189.69807867 32.87378528 -189.67200475 30.82358243 -189.63189507 28.77370071 C-189.57855489 25.90480431 -189.57541245 23.03993982 -189.58422852 20.1706543 C-189.55703735 19.32372513 -189.52984619 18.47679596 -189.50183105 17.60420227 C-189.54009162 15.19016345 -189.65481143 13.37473485 -190.50830078 11.11352539 C-192.92852943 8.87429085 -195.5418762 7.50967382 -198.50830078 6.11352539 C-200.18718519 5.13417615 -201.86008834 4.14365817 -203.50830078 3.11352539 C-203.50830078 2.78352539 -203.50830078 2.45352539 -203.50830078 2.11352539 C-193.81417827 2.06674052 -184.1200959 2.03142576 -174.42588425 2.00990105 C-169.922228 1.9995591 -165.41865019 1.98558035 -160.91503906 1.96264648 C-112.18853882 1.72154679 -112.18853882 1.72154679 -95.25830078 6.86352539 C-94.41396484 7.09040039 -93.56962891 7.31727539 -92.69970703 7.55102539 C-84.64531032 9.8986635 -78.33274066 14.16633196 -73.50830078 21.11352539 C-70.81951623 26.4910945 -71.65100562 35.22272234 -72.50830078 41.11352539 C-74.14418728 44.83912497 -76.20620317 46.79792206 -79.50830078 49.11352539 C-80.28044922 49.66008789 -81.05259766 50.20665039 -81.84814453 50.76977539 C-89.46021144 55.67613131 -97.77902201 58.83632223 -106.50830078 61.11352539 C-105.79867187 61.53698242 -105.79867187 61.53698242 -105.07470703 61.96899414 C-97.43743816 67.04561925 -92.8642175 74.58613315 -88.18017578 82.30102539 C-83.86702244 89.10487291 -76.80096574 92.84137745 -69.11503601 94.69264221 C-63.30808301 95.63023219 -57.39561299 95.42086733 -51.52783203 95.41430664 C-50.06825135 95.41820291 -48.60867178 95.42253946 -47.14909363 95.42729187 C-44.09716105 95.4347254 -41.04534418 95.43448498 -37.9934082 95.42919922 C-34.11830425 95.42342637 -30.24368168 95.44029625 -26.36865711 95.46354389 C-23.35454119 95.47841674 -20.34053736 95.47913443 -17.32639122 95.47603416 C-15.89971659 95.4765412 -14.47303462 95.48166023 -13.04639626 95.49184608 C-0.92676608 95.56773345 10.32155345 93.96094714 21.49169922 89.11352539 C23.76350276 87.2368422 23.76350276 87.2368422 23.92919922 84.23852539 C23.77958383 81.02750081 23.77958383 81.02750081 21.55419922 78.98852539 C13.74142157 74.20519213 5.56642546 71.90549458 -3.29397583 69.73629761 C-6.75102168 68.88727442 -10.19951938 68.00469742 -13.64892578 67.12524414 C-14.3293544 66.95225296 -15.00978302 66.77926178 -15.71083069 66.60102844 C-54.54372377 56.7035784 -54.54372377 56.7035784 -62.50830078 44.11352539 C-64.79715772 37.24695457 -64.9929245 27.25052035 -62.52001953 20.35961914 C-54.56683945 8.91152049 -37.66408515 4.60596898 -24.87158203 1.69165039 C-16.59018088 0.26813428 -8.38878405 -0.0295489 0 0 Z " fill="#EF813D" transform="translate(247.50830078125,608.886474609375)"/>
<path d="M0 0 C1.02544922 -0.020625 2.05089844 -0.04125 3.10742188 -0.0625 C10.30419048 -0.09887028 16.48919723 0.99016774 23.3125 3.25 C24.96958984 3.79720703 24.96958984 3.79720703 26.66015625 4.35546875 C33.92579151 7.2512687 39.57880787 10.93657849 45.3125 16.25 C45.93769531 16.82105469 46.56289063 17.39210938 47.20703125 17.98046875 C63.86221233 35.01161328 66.62949922 60.99374002 66.4765625 83.51367188 C66.43554646 86.75953219 66.37891473 90.00456839 66.3125 93.25 C66.29848145 94.06436523 66.28446289 94.87873047 66.27001953 95.71777344 C66.01293142 107.55442805 63.99566589 119.00445386 61.8046875 130.61425781 C61.38097151 132.88332419 60.97958223 135.15395031 60.59375 137.4296875 C56.782494 159.25366532 50.31467356 180.27622161 43.3125 201.25 C42.9825 201.25 42.6525 201.25 42.3125 201.25 C42.23756064 196.87584724 42.18353119 192.50204845 42.14770508 188.12744141 C42.13274816 186.64365111 42.11237505 185.15990401 42.08618164 183.67626953 C41.93813252 175.06619705 42.18298228 167.39866618 45.3125 159.25 C53.6312414 132.45922445 58.9301156 100.35453012 47.125 73.875 C41.46164365 63.68095857 34.09653996 57.49910807 23.3125 53.25 C22.49652344 52.91097656 21.68054688 52.57195312 20.83984375 52.22265625 C-6.57839058 42.79356457 -39.91466871 56.44310719 -64.45703125 68.1328125 C-92.55085763 81.93065913 -118.29864412 100.29416833 -141.90429688 120.75415039 C-143.21149825 121.85070335 -144.54505094 122.91604516 -145.89257812 123.96264648 C-154.60061693 130.80408572 -162.29709606 138.59100778 -170.08642578 146.44311523 C-172.44117514 148.81620376 -174.80391141 151.18110931 -177.16796875 153.54492188 C-178.69057761 155.07244489 -180.21272896 156.60042412 -181.734375 158.12890625 C-182.77679352 159.172994 -182.77679352 159.172994 -183.840271 160.23817444 C-188.31365356 164.75449339 -192.54862717 169.42650129 -196.6875 174.25 C-197.67235611 175.37962254 -198.65789916 176.50864705 -199.64453125 177.63671875 C-206.28954522 185.29601995 -212.61968457 193.12519093 -218.6875 201.25 C-219.22665039 201.96849121 -219.76580078 202.68698242 -220.32128906 203.42724609 C-228.10980049 213.82279973 -235.69224892 224.3026004 -242.6875 235.25 C-243.18072754 236.02005371 -243.67395508 236.79010742 -244.18212891 237.58349609 C-252.62096372 250.82449775 -260.38738749 264.3508749 -267.6875 278.25 C-268.17573242 279.17055176 -268.66396484 280.09110352 -269.16699219 281.03955078 C-291.43889569 323.25633292 -306.50302574 369.08147725 -313.6875 416.25 C-313.84734375 417.27303223 -314.0071875 418.29606445 -314.171875 419.35009766 C-317.69777665 442.79658371 -317.41848739 466.59323916 -317.6875 490.25 C-324.40774966 483.52975034 -326.26685082 468.54218204 -328.375 459.5 C-328.56489502 458.70625977 -328.75479004 457.91251953 -328.95043945 457.09472656 C-332.9615845 439.1100014 -334.23813222 421.12983406 -334.125 402.75 C-334.12229095 401.709505 -334.11958191 400.66901001 -334.11679077 399.59698486 C-334.04837022 382.18353761 -332.96365576 365.38744062 -329.6875 348.25 C-329.51089844 347.2923877 -329.33429688 346.33477539 -329.15234375 345.34814453 C-320.69558797 300.73875779 -301.75842453 258.10007449 -278.6875 219.25 C-278.15656738 218.35587402 -277.62563477 217.46174805 -277.07861328 216.54052734 C-262.44444021 192.07311545 -245.78295775 168.63000433 -227.109375 147.0703125 C-224.83942659 144.42692097 -222.66638885 141.72834686 -220.5 139 C-210.24603266 126.46137678 -198.61309303 115.08431558 -187.1875 103.625 C-186.67516815 103.10998932 -186.1628363 102.59497864 -185.63497925 102.06436157 C-179.83212501 96.2384686 -173.94871664 90.58362899 -167.6875 85.25 C-166.53055338 84.22882248 -165.37557281 83.20541281 -164.22265625 82.1796875 C-155.04100302 74.07745632 -145.5041534 66.56504983 -135.6875 59.25 C-135.03749023 58.76257324 -134.38748047 58.27514648 -133.71777344 57.77294922 C-118.65568838 46.48984058 -103.11961511 36.43030551 -86.6875 27.25 C-85.92985352 26.82187012 -85.17220703 26.39374023 -84.39160156 25.95263672 C-63.27916304 14.09115213 -41.41974843 6.04444259 -17.6875 1.25 C-16.70523437 1.03988281 -15.72296875 0.82976563 -14.7109375 0.61328125 C-9.81422226 0.02491624 -4.9275202 0.02431842 0 0 Z " fill="#A8CF46" transform="translate(347.6875,13.75)"/>
<path d="M0 0 C1.424324 -0.00457014 2.84864581 -0.00987817 4.27296448 -0.0158844 C7.24757893 -0.02478158 10.22192442 -0.02243149 13.1965332 -0.01245117 C16.98699977 -0.00096553 20.7765341 -0.0211829 24.56687832 -0.05036831 C27.50537398 -0.06881496 30.44364969 -0.06842118 33.3821888 -0.06273079 C34.77868012 -0.06257861 36.17518734 -0.06853681 37.57162285 -0.08102226 C46.7749552 -0.15173217 54.27731015 0.36815351 61.62109375 6.29296875 C62.13929688 6.916875 62.6575 7.54078125 63.19140625 8.18359375 C63.72507812 8.7971875 64.25875 9.41078125 64.80859375 10.04296875 C69.02134734 16.72225683 69.74956399 22.73050603 69.65698242 30.4296875 C69.6574205 31.3964592 69.65785858 32.3632309 69.65830994 33.35929871 C69.65623287 36.53010807 69.63295285 39.70037763 69.609375 42.87109375 C69.6037752 45.07926139 69.59950692 47.28743276 69.59651184 49.49560547 C69.58509335 55.28902596 69.55565187 61.08221848 69.5223999 66.87554932 C69.49163442 72.79460568 69.47799267 78.71369911 69.46289062 84.6328125 C69.43077937 96.23317272 69.37961924 107.83336423 69.31640625 119.43359375 C69.86286962 119.42990658 70.40933298 119.42621941 70.97235584 119.4224205 C84.31178613 119.33381512 97.65116437 119.26801705 110.99082661 119.22634506 C117.44199438 119.20551205 123.89294901 119.17727232 130.34399414 119.13183594 C136.57505055 119.08822597 142.80590253 119.06442443 149.03709984 119.05408478 C151.40883792 119.04672063 153.78056541 119.03234039 156.15221596 119.01067352 C159.48624062 118.98143886 162.81943128 118.97764621 166.15356445 118.97949219 C167.12389618 118.96511108 168.09422791 118.95072998 169.09396362 118.93591309 C178.22696372 118.99027174 187.14877902 121.30031306 193.89581299 127.75415039 C198.81490124 133.56955887 199.89599555 139.31583318 199.70703125 146.74609375 C199.70137146 147.60041992 199.69571167 148.45474609 199.68988037 149.33496094 C199.66768015 152.03510128 199.61751745 154.73386182 199.56640625 157.43359375 C199.54631999 159.27602236 199.52807296 161.11847199 199.51171875 162.9609375 C199.46786943 167.4523459 199.39895877 171.94273677 199.31640625 176.43359375 C195.96351713 177.25142653 192.60888648 178.06188589 189.25390625 178.87109375 C188.31095703 179.10119141 187.36800781 179.33128906 186.39648438 179.56835938 C185.47158203 179.79072266 184.54667969 180.01308594 183.59375 180.2421875 C182.75062256 180.44642334 181.90749512 180.65065918 181.03881836 180.86108398 C138.13119412 189.88434457 93.12107851 175.02490398 52.17630005 163.70077515 C14.98672232 153.41893668 -22.17850885 143.2827715 -60.68359375 139.43359375 C-62.11131104 139.28893677 -62.11131104 139.28893677 -63.56787109 139.14135742 C-73.59793324 138.24413265 -83.62182871 138.23379873 -93.68359375 138.24609375 C-94.59599823 138.246698 -95.50840271 138.24730225 -96.44845581 138.2479248 C-117.23129905 138.28531673 -136.90905093 140.37633863 -157.35961914 144.09814453 C-159.68359375 144.43359375 -159.68359375 144.43359375 -163.68359375 144.43359375 C-163.68359375 161.59359375 -163.68359375 178.75359375 -163.68359375 196.43359375 C-164.01359375 196.43359375 -164.34359375 196.43359375 -164.68359375 196.43359375 C-164.78547163 188.64155311 -164.85525964 180.84968587 -164.90332031 173.05712891 C-164.92336755 170.40927715 -164.95061259 167.76146929 -164.98535156 165.11376953 C-165.03417119 161.29578787 -165.05663256 157.47839439 -165.07421875 153.66015625 C-165.09486389 152.48683746 -165.11550903 151.31351868 -165.13677979 150.10464478 C-165.13904535 141.70296146 -163.90452612 134.56599455 -158.640625 127.8125 C-157.93292969 127.21308594 -157.22523438 126.61367187 -156.49609375 125.99609375 C-155.45388672 125.06990234 -155.45388672 125.06990234 -154.390625 124.125 C-147.19027808 119.62608194 -139.97829592 119.0020608 -131.65600586 119.09301758 C-130.59155243 119.0925795 -129.527099 119.09214142 -128.4303894 119.09169006 C-124.94038023 119.09376656 -121.45086192 119.11704417 -117.9609375 119.140625 C-115.52999636 119.14622499 -113.09905182 119.15049319 -110.66810608 119.15348816 C-104.29109233 119.16490509 -97.91428579 119.1943453 -91.53735352 119.2276001 C-85.02167564 119.25836892 -78.50596407 119.27200804 -71.99023438 119.28710938 C-59.22126612 119.31921789 -46.45244099 119.36979391 -33.68359375 119.43359375 C-33.6935865 117.58102966 -33.6935865 117.58102966 -33.70378113 115.69104004 C-33.76465918 104.03837303 -33.80959861 92.3857384 -33.83903027 80.7329483 C-33.85467015 74.7424709 -33.87587805 68.75212213 -33.90991211 62.76171875 C-33.94256498 56.97807047 -33.96045939 51.19454574 -33.96822548 45.41081238 C-33.97375831 43.20686397 -33.98456258 41.00292214 -34.00078392 38.79902649 C-34.02263665 35.70636507 -34.02555735 32.61421087 -34.02416992 29.52148438 C-34.03495575 28.61517273 -34.04574158 27.70886108 -34.05685425 26.77508545 C-34.02443797 20.07477137 -32.95534202 14.56165512 -28.921875 9.0078125 C-28.28636719 8.38519531 -27.65085937 7.76257813 -26.99609375 7.12109375 C-26.37347656 6.48558594 -25.75085938 5.85007812 -25.109375 5.1953125 C-17.38713515 -0.41294865 -9.1749172 -0.02589833 0 0 Z " fill="#D0DD89" transform="translate(310.68359375,102.56640625)"/>
<path d="M0 0 C0 3.16532218 -0.4881352 4.27663837 -1.9375 7 C-4.67091399 12.1729125 -5.16322296 16.43569212 -5.20532227 22.23510742 C-5.21535499 23.08791699 -5.22538771 23.94072657 -5.23572445 24.81937885 C-5.2671201 27.58138114 -5.29188504 30.34339777 -5.31640625 33.10546875 C-5.33480871 34.81010406 -5.35364533 36.51473474 -5.3729248 38.21936035 C-5.44138283 44.54201874 -5.50142898 50.86476594 -5.5625 57.1875 C-5.706875 71.315625 -5.85125 85.44375 -6 100 C-36.36 100 -66.72 100 -98 100 C-92.37268614 89.87083505 -92.37268614 89.87083505 -89.984375 86.7890625 C-89.46029053 86.10755127 -88.93620605 85.42604004 -88.39624023 84.72387695 C-87.58135132 83.68493286 -87.58135132 83.68493286 -86.75 82.625 C-86.17644775 81.88531982 -85.60289551 81.14563965 -85.01196289 80.38354492 C-80.43895463 74.50725814 -75.78707616 68.70357621 -71 63 C-70.56929199 62.47905762 -70.13858398 61.95811523 -69.69482422 61.42138672 C-59.46705946 49.06088624 -48.41841888 37.19776412 -36 27 C-35.46890625 26.5551123 -34.9378125 26.11022461 -34.390625 25.65185547 C-23.38350422 16.43515578 -11.94467371 7.96311581 0 0 Z " fill="#3F4195" transform="translate(270,110)"/>
</svg>
